<svg xmlns="http://www.w3.org/2000/svg" xmlns:xlink="http://www.w3.org/1999/xlink" width="250" zoomAndPan="magnify" viewBox="0 0 187.5 47.25" height="63" preserveAspectRatio="xMidYMid meet" version="1.0"><defs><clipPath id="2cb8a1dd3a"><path d="M 19.140625 0 L 167.535156 0 L 167.535156 46.511719 L 19.140625 46.511719 Z M 19.140625 0 " clip-rule="nonzero"/></clipPath></defs><g clip-path="url(#2cb8a1dd3a)"><path fill="#d29b24" d="M 83.4375 0.519531 C 83.660156 0.472656 83.878906 0.394531 84.105469 0.390625 C 86.238281 0.371094 88.378906 0.378906 90.515625 0.355469 C 91.484375 0.34375 92.457031 0.257812 93.425781 0.238281 C 94.976562 0.210938 96.527344 0.21875 98.082031 0.203125 C 98.40625 0.203125 98.730469 0.179688 99.054688 0.175781 C 100.855469 0.164062 102.660156 0.171875 104.460938 0.140625 C 105.8125 0.117188 107.167969 0.0117188 108.519531 0.0078125 C 109.628906 0.0078125 110.746094 0.113281 111.859375 0.144531 C 113.054688 0.175781 114.246094 0.136719 115.4375 0.191406 C 118.261719 0.308594 121.089844 0.425781 123.910156 0.613281 C 126.617188 0.792969 129.339844 0.933594 132.019531 1.328125 C 135.273438 1.808594 138.558594 2.121094 141.753906 2.988281 C 143.917969 3.574219 146.144531 3.9375 148.285156 4.589844 C 150.5625 5.285156 152.785156 6.179688 155 7.054688 C 156.238281 7.546875 157.472656 8.097656 158.613281 8.773438 C 160.257812 9.75 161.851562 10.792969 163.289062 12.09375 C 164.6875 13.359375 165.796875 14.800781 166.640625 16.460938 C 167.296875 17.742188 167.703125 19.089844 167.511719 20.546875 C 167.324219 21.945312 166.933594 23.253906 166.101562 24.453125 C 164.464844 26.804688 162.359375 28.589844 160.050781 30.246094 C 157.191406 32.289062 154.058594 33.765625 150.859375 35.132812 C 149.042969 35.914062 147.144531 36.515625 145.269531 37.15625 C 143.390625 37.800781 141.515625 38.433594 139.613281 38.984375 C 138.015625 39.445312 136.386719 39.773438 134.769531 40.171875 C 134.320312 40.285156 133.882812 40.472656 133.425781 40.582031 C 131.613281 41.003906 129.800781 41.464844 127.96875 41.8125 C 125.734375 42.238281 123.484375 42.558594 121.238281 42.941406 C 120.3125 43.101562 119.402344 43.347656 118.476562 43.480469 C 117.273438 43.65625 116.054688 43.722656 114.851562 43.894531 C 113.523438 44.082031 112.214844 44.386719 110.890625 44.554688 C 109.496094 44.734375 108.089844 44.796875 106.691406 44.933594 C 106.226562 44.972656 105.773438 45.109375 105.308594 45.148438 C 102.609375 45.382812 99.902344 45.621094 97.199219 45.808594 C 94.777344 45.976562 92.355469 46.082031 89.933594 46.203125 C 88.386719 46.28125 86.84375 46.378906 85.296875 46.402344 C 82.65625 46.445312 80.015625 46.523438 77.378906 46.421875 C 75.808594 46.359375 74.238281 46.40625 72.671875 46.363281 C 71.59375 46.335938 70.515625 46.195312 69.433594 46.125 C 68.691406 46.078125 67.945312 46.0625 67.199219 46.042969 C 66.769531 46.03125 66.332031 46.105469 65.910156 46.039062 C 64.253906 45.773438 62.570312 45.914062 60.910156 45.710938 C 59.222656 45.507812 57.535156 45.339844 55.84375 45.152344 C 54.847656 45.042969 53.839844 44.957031 52.84375 44.800781 C 51.03125 44.515625 49.238281 44.097656 47.417969 43.90625 C 45.855469 43.738281 44.375 43.28125 42.867188 42.925781 C 40.949219 42.476562 39.019531 42.070312 37.117188 41.554688 C 35.988281 41.25 34.898438 40.773438 33.789062 40.382812 C 33.519531 40.285156 33.238281 40.21875 32.960938 40.144531 C 32.648438 40.0625 32.308594 40.039062 32.023438 39.90625 C 30.621094 39.25 29.210938 38.609375 27.847656 37.882812 C 26.492188 37.160156 25.199219 36.363281 24.0625 35.277344 C 23.28125 34.53125 22.429688 33.867188 21.75 33.011719 C 19.578125 30.285156 19.300781 27.257812 20.660156 24.15625 C 21.140625 23.050781 21.738281 21.886719 22.785156 21.066406 C 23.339844 20.636719 23.691406 19.957031 24.199219 19.457031 C 26.023438 17.683594 28.039062 16.171875 30.328125 15.042969 C 30.523438 14.949219 30.707031 14.832031 30.894531 14.722656 C 32.203125 13.976562 33.488281 13.199219 34.816406 12.496094 C 35.605469 12.078125 36.445312 11.757812 37.277344 11.425781 C 38.851562 10.800781 40.417969 10.15625 42.015625 9.597656 C 43.753906 8.980469 45.515625 8.433594 47.277344 7.890625 C 48.402344 7.542969 49.542969 7.222656 50.691406 6.9375 C 51.175781 6.816406 51.703125 6.839844 52.191406 6.722656 C 53.597656 6.394531 54.988281 5.984375 56.402344 5.691406 C 58.101562 5.335938 59.816406 5.066406 61.527344 4.769531 C 62.414062 4.617188 63.308594 4.472656 64.203125 4.34375 C 66.417969 4.035156 68.632812 3.699219 70.855469 3.445312 C 73.375 3.164062 75.894531 2.925781 78.421875 2.730469 C 80.652344 2.554688 82.882812 2.453125 85.113281 2.328125 C 85.351562 2.316406 85.589844 2.351562 85.871094 2.558594 C 85.378906 2.703125 84.898438 2.902344 84.398438 2.992188 C 80.582031 3.683594 76.761719 4.332031 72.945312 5.035156 C 70.953125 5.398438 68.984375 5.863281 66.996094 6.257812 C 66.078125 6.441406 65.152344 6.558594 64.226562 6.71875 C 63.945312 6.769531 63.675781 6.878906 63.394531 6.9375 C 62.722656 7.082031 62.050781 7.195312 61.386719 7.347656 C 60.789062 7.484375 60.207031 7.664062 59.613281 7.8125 C 58.066406 8.191406 56.492188 8.476562 54.984375 8.957031 C 53.839844 9.320312 52.625 9.457031 51.539062 9.855469 C 49.707031 10.53125 47.820312 10.960938 45.988281 11.582031 C 44.898438 11.949219 43.839844 12.402344 42.757812 12.800781 C 41.28125 13.34375 39.777344 13.824219 38.324219 14.425781 C 37.464844 14.777344 36.703125 15.359375 35.855469 15.753906 C 34.171875 16.539062 32.472656 17.289062 30.910156 18.300781 C 30.152344 18.792969 29.46875 19.386719 28.722656 19.886719 C 27.109375 20.976562 25.933594 22.519531 24.5625 23.863281 C 24.105469 24.316406 23.863281 25.039062 23.652344 25.683594 C 22.726562 28.5 23.597656 30.863281 26 32.589844 C 26.640625 33.046875 27.105469 33.691406 27.878906 34.015625 C 28.929688 34.460938 29.917969 35.042969 30.929688 35.578125 C 31.304688 35.777344 31.640625 36.074219 32.03125 36.21875 C 33.269531 36.679688 34.527344 37.097656 35.78125 37.515625 C 37.558594 38.105469 39.332031 38.703125 41.125 39.242188 C 42.078125 39.527344 43.0625 39.722656 44.042969 39.90625 C 45.355469 40.152344 46.683594 40.355469 48.003906 40.574219 C 49.707031 40.851562 51.417969 41.089844 53.113281 41.414062 C 54.484375 41.675781 55.867188 41.820312 57.257812 41.929688 C 57.539062 41.949219 57.816406 42.050781 58.09375 42.117188 C 58.304688 42.167969 58.523438 42.285156 58.722656 42.265625 C 60.757812 42.054688 62.742188 42.476562 64.738281 42.75 C 65.09375 42.796875 65.464844 42.769531 65.828125 42.792969 C 67.382812 42.882812 68.929688 43.007812 70.484375 43.058594 C 71.699219 43.101562 72.921875 43.039062 74.136719 43.0625 C 75.398438 43.085938 76.660156 43.1875 77.921875 43.207031 C 79.261719 43.222656 80.597656 43.179688 81.941406 43.175781 C 82.738281 43.171875 83.535156 43.152344 84.332031 43.203125 C 85.84375 43.292969 87.34375 43.191406 88.855469 43.082031 C 90.898438 42.933594 92.960938 43.042969 95.011719 42.96875 C 96.304688 42.925781 97.597656 42.722656 98.886719 42.621094 C 99.925781 42.542969 100.96875 42.507812 102.007812 42.453125 C 102.6875 42.417969 103.367188 42.402344 104.039062 42.335938 C 106.128906 42.121094 108.214844 41.890625 110.300781 41.648438 C 111.953125 41.457031 113.601562 41.210938 115.253906 41.035156 C 117.363281 40.8125 119.460938 40.53125 121.546875 40.117188 C 122.746094 39.875 123.96875 39.75 125.175781 39.527344 C 126.8125 39.21875 128.441406 38.890625 130.0625 38.535156 C 132.207031 38.066406 134.355469 37.617188 136.480469 37.070312 C 138.714844 36.496094 140.9375 35.847656 143.152344 35.175781 C 147.03125 33.996094 150.804688 32.511719 154.453125 30.753906 C 157.550781 29.265625 160.496094 27.480469 162.910156 24.96875 C 164.109375 23.722656 165.027344 22.246094 165.21875 20.515625 C 165.371094 19.144531 165.0625 17.765625 164.308594 16.5625 C 162.710938 14.019531 160.46875 12.148438 157.863281 10.722656 C 155.992188 9.699219 154.097656 8.691406 152.121094 7.910156 C 149.871094 7.027344 147.523438 6.378906 145.207031 5.667969 C 144.078125 5.324219 142.917969 5.066406 141.765625 4.796875 C 139.261719 4.21875 136.765625 3.617188 134.191406 3.371094 C 131.992188 3.164062 129.8125 2.773438 127.621094 2.5 C 126.363281 2.339844 125.09375 2.246094 123.832031 2.128906 C 121.5625 1.925781 119.300781 1.679688 117.027344 1.542969 C 115.191406 1.433594 113.347656 1.46875 111.507812 1.425781 C 108.792969 1.367188 106.074219 1.28125 103.363281 1.242188 C 100.585938 1.199219 97.804688 1.21875 95.027344 1.179688 C 92.058594 1.136719 89.089844 1.054688 86.121094 0.992188 C 85.519531 0.980469 84.910156 1.003906 84.3125 0.964844 C 84.011719 0.945312 83.71875 0.8125 83.421875 0.734375 C 83.425781 0.660156 83.429688 0.589844 83.4375 0.519531 Z M 83.4375 0.519531 " fill-opacity="1" fill-rule="nonzero"/></g></svg>