<svg xmlns="http://www.w3.org/2000/svg" xmlns:xlink="http://www.w3.org/1999/xlink" width="288" zoomAndPan="magnify" viewBox="0 0 216 558.75" height="745" preserveAspectRatio="xMidYMid meet" version="1.0"><defs><clipPath id="7c8f859d54"><path d="M 14.777344 208.996094 L 74.371094 208.996094 L 74.371094 557.828125 L 14.777344 557.828125 Z M 14.777344 208.996094 " clip-rule="nonzero"/></clipPath><clipPath id="9cb5ce6c3a"><path d="M 1 35 L 214 35 L 214 226 L 1 226 Z M 1 35 " clip-rule="nonzero"/></clipPath><clipPath id="16fba55036"><path d="M 4.796875 33.632812 L 214.039062 38.8125 L 209.289062 230.617188 L 0.046875 225.4375 Z M 4.796875 33.632812 " clip-rule="nonzero"/></clipPath><clipPath id="671cf2f40b"><path d="M 4.796875 33.632812 L 214.039062 38.8125 L 209.289062 230.617188 L 0.046875 225.4375 Z M 4.796875 33.632812 " clip-rule="nonzero"/></clipPath></defs><g clip-path="url(#7c8f859d54)"><path fill="#92cd50" d="M 59.828125 324.332031 C 59.828125 323.917969 59.796875 323.507812 59.753906 323.097656 C 59.6875 322.644531 59.601562 322.203125 59.496094 321.757812 C 59.355469 321.257812 59.195312 320.765625 59.003906 320.285156 C 58.8125 319.828125 58.597656 319.382812 58.363281 318.945312 C 58.082031 318.453125 57.773438 317.980469 57.441406 317.523438 C 57.074219 317.046875 56.683594 316.597656 56.269531 316.164062 C 55.773438 315.664062 55.25 315.191406 54.699219 314.753906 C 54.203125 314.371094 53.691406 314.027344 53.15625 313.707031 C 52.628906 313.40625 52.089844 313.140625 51.53125 312.898438 C 50.882812 312.636719 50.226562 312.414062 49.550781 312.222656 C 49.507812 312.210938 49.464844 312.199219 49.421875 312.1875 C 49.421875 312.1875 49.421875 312.1875 49.425781 312.1875 C 48.691406 312.003906 47.949219 311.863281 47.199219 311.753906 C 46.441406 311.664062 45.6875 311.613281 44.921875 311.601562 C 44.441406 311.605469 43.964844 311.628906 43.484375 311.667969 C 43.875 313.09375 44.324219 314.5 44.867188 315.871094 C 45.277344 316.863281 45.734375 317.832031 46.253906 318.773438 C 46.753906 319.660156 47.300781 320.519531 47.90625 321.335938 C 48.378906 321.960938 48.890625 322.554688 49.429688 323.121094 C 50.042969 323.734375 50.6875 324.304688 51.367188 324.84375 C 52.070312 325.382812 52.796875 325.886719 53.5625 326.339844 C 54.039062 326.609375 54.527344 326.851562 55.035156 327.070312 C 55.351562 327.195312 55.675781 327.308594 56.007812 327.402344 C 56.257812 327.464844 56.511719 327.511719 56.765625 327.550781 C 56.964844 327.570312 57.164062 327.585938 57.363281 327.589844 C 57.503906 327.585938 57.640625 327.578125 57.777344 327.566406 C 57.894531 327.546875 58.015625 327.523438 58.132812 327.496094 C 58.21875 327.472656 58.300781 327.445312 58.382812 327.414062 C 58.464844 327.378906 58.546875 327.339844 58.628906 327.296875 C 58.695312 327.257812 58.761719 327.214844 58.824219 327.167969 C 58.886719 327.117188 58.949219 327.066406 59.007812 327.011719 C 59.074219 326.945312 59.136719 326.878906 59.195312 326.804688 C 59.253906 326.726562 59.300781 326.648438 59.351562 326.574219 C 59.410156 326.460938 59.464844 326.351562 59.511719 326.238281 C 59.566406 326.101562 59.613281 325.96875 59.652344 325.828125 C 59.707031 325.617188 59.746094 325.40625 59.777344 325.191406 C 59.808594 324.90625 59.824219 324.621094 59.828125 324.332031 Z M 73.351562 404.988281 C 72.339844 407.148438 70.507812 408.898438 68.332031 409.859375 C 67.359375 410.289062 66.277344 410.371094 65.230469 410.277344 C 64.636719 410.222656 64.035156 410.132812 63.464844 409.953125 C 62.847656 409.757812 62.265625 409.503906 61.691406 409.210938 C 60.445312 408.582031 59.355469 407.714844 58.316406 406.796875 C 57.179688 405.789062 56.125 404.6875 55.109375 403.566406 C 52.96875 401.203125 51.027344 398.675781 49.089844 396.144531 C 47.238281 393.71875 45.398438 391.277344 43.28125 389.066406 C 42.519531 388.300781 41.726562 387.574219 40.882812 386.902344 C 40.320312 386.476562 39.742188 386.074219 39.140625 385.714844 C 39.148438 385.71875 39.15625 385.722656 39.164062 385.730469 C 39.152344 385.722656 39.144531 385.714844 39.132812 385.710938 C 39.09375 385.6875 39.058594 385.664062 39.019531 385.644531 C 39.050781 385.660156 39.078125 385.679688 39.109375 385.695312 C 38.601562 385.40625 38.082031 385.144531 37.546875 384.902344 C 37.070312 384.707031 36.589844 384.535156 36.09375 384.390625 C 35.628906 384.269531 35.15625 384.171875 34.679688 384.097656 C 34.300781 384.054688 33.917969 384.023438 33.535156 384.011719 C 33.148438 384.019531 32.769531 384.042969 32.386719 384.085938 C 31.988281 384.144531 31.597656 384.21875 31.203125 384.308594 C 30.816406 384.417969 30.433594 384.539062 30.054688 384.675781 C 29.796875 384.78125 29.542969 384.898438 29.292969 385.023438 C 29.070312 385.152344 28.855469 385.292969 28.640625 385.445312 C 28.429688 385.617188 28.226562 385.796875 28.03125 385.984375 C 27.738281 386.289062 27.460938 386.605469 27.199219 386.929688 C 26.871094 387.355469 26.570312 387.800781 26.28125 388.261719 C 25.929688 388.878906 25.613281 389.511719 25.335938 390.167969 C 25.046875 390.898438 24.796875 391.632812 24.585938 392.386719 C 24.320312 393.414062 24.125 394.445312 23.96875 395.496094 C 23.804688 396.863281 23.71875 398.230469 23.699219 399.609375 C 23.707031 401.589844 23.847656 403.554688 24.089844 405.519531 C 24.425781 407.96875 24.925781 410.382812 25.53125 412.777344 C 26.339844 415.867188 27.265625 418.941406 28.4375 421.917969 C 31.28125 428.785156 34.929688 435.289062 38.550781 441.773438 C 38.535156 441.742188 38.515625 441.710938 38.5 441.679688 C 38.558594 441.789062 38.621094 441.898438 38.683594 442.007812 C 38.679688 442.003906 38.679688 442.003906 38.679688 442 C 39.042969 442.652344 39.410156 443.300781 39.773438 443.953125 C 39.957031 444.28125 40.136719 444.609375 40.324219 444.933594 C 40.324219 444.941406 40.328125 444.941406 40.328125 444.949219 C 40.359375 444.992188 40.382812 445.039062 40.40625 445.085938 C 40.417969 445.113281 40.433594 445.140625 40.449219 445.167969 C 40.46875 445.199219 40.488281 445.230469 40.507812 445.265625 C 40.507812 445.269531 40.515625 445.277344 40.519531 445.285156 C 40.539062 445.324219 40.5625 445.359375 40.582031 445.398438 C 40.769531 445.734375 40.953125 446.066406 41.140625 446.398438 C 41.941406 447.839844 42.742188 449.28125 43.53125 450.730469 C 44.277344 452.105469 44.992188 453.492188 45.703125 454.886719 C 46.410156 456.277344 47.105469 457.675781 47.738281 459.09375 C 49.0625 462.066406 50.292969 465.082031 51.421875 468.128906 C 52.058594 469.855469 52.671875 471.589844 53.265625 473.332031 C 53.851562 475.058594 54.367188 476.800781 54.859375 478.554688 C 55.839844 482.058594 56.707031 485.589844 57.386719 489.15625 C 58.027344 492.503906 58.609375 495.855469 59.105469 499.226562 C 59.632812 502.816406 60.109375 506.421875 60.453125 510.039062 C 60.777344 513.492188 61.046875 516.953125 61.246094 520.414062 C 61.441406 523.78125 61.398438 527.167969 61.378906 530.539062 C 61.371094 532.320312 61.355469 534.101562 61.285156 535.882812 C 61.214844 537.664062 61.082031 539.4375 60.929688 541.210938 C 60.855469 542.085938 60.769531 542.960938 60.679688 543.835938 C 60.640625 544.242188 60.589844 544.648438 60.542969 545.050781 C 60.519531 545.238281 60.496094 545.425781 60.472656 545.605469 C 60.457031 545.722656 60.445312 545.84375 60.421875 545.957031 C 60.414062 546.046875 60.402344 546.140625 60.390625 546.234375 C 60.191406 547.75 59.9375 549.257812 59.683594 550.765625 C 59.449219 552.179688 59.195312 553.59375 58.824219 554.976562 C 58.628906 555.710938 58.433594 556.480469 58.054688 557.140625 C 58.039062 557.171875 58.023438 557.199219 58.007812 557.226562 C 57.996094 557.246094 57.980469 557.265625 57.96875 557.289062 C 57.640625 557.804688 56.921875 557.96875 56.386719 557.703125 C 55.804688 557.417969 55.488281 556.625 55.824219 556.039062 C 55.890625 555.921875 55.949219 555.800781 56.003906 555.675781 C 56.175781 555.226562 56.308594 554.773438 56.433594 554.308594 C 56.773438 552.980469 57.015625 551.632812 57.246094 550.28125 C 57.492188 548.796875 57.742188 547.3125 57.941406 545.824219 C 57.96875 545.601562 58 545.386719 58.027344 545.167969 C 58.023438 545.203125 58.015625 545.242188 58.011719 545.28125 C 58.332031 542.640625 58.585938 539.984375 58.726562 537.328125 C 58.871094 534.550781 58.894531 531.773438 58.902344 528.996094 C 58.902344 529.046875 58.902344 529.097656 58.902344 529.152344 C 58.90625 527.230469 58.90625 525.308594 58.867188 523.390625 C 58.824219 521.355469 58.703125 519.328125 58.554688 517.304688 C 58.25 513.171875 57.894531 509.046875 57.378906 504.9375 C 57.386719 504.992188 57.394531 505.042969 57.402344 505.097656 C 56.921875 501.410156 56.398438 497.730469 55.761719 494.066406 C 55.445312 492.253906 55.109375 490.445312 54.753906 488.640625 C 54.359375 486.621094 53.882812 484.617188 53.375 482.625 C 53.378906 482.632812 53.378906 482.640625 53.382812 482.652344 C 52.609375 479.679688 51.789062 476.722656 50.800781 473.816406 C 49.851562 471.019531 48.839844 468.242188 47.75 465.5 C 47.769531 465.546875 47.789062 465.59375 47.808594 465.648438 C 46.628906 462.71875 45.390625 459.820312 43.980469 456.996094 C 42.542969 454.117188 41.015625 451.289062 39.457031 448.480469 C 39.097656 447.832031 38.734375 447.183594 38.371094 446.539062 C 38.296875 446.414062 38.234375 446.28125 38.160156 446.15625 C 38.140625 446.125 38.125 446.09375 38.109375 446.0625 C 37.984375 445.84375 37.863281 445.625 37.742188 445.40625 C 37.3125 444.644531 36.886719 443.878906 36.457031 443.113281 C 36.476562 443.144531 36.492188 443.175781 36.507812 443.203125 C 33.277344 437.425781 30.046875 431.632812 27.316406 425.589844 C 26.625 424.050781 25.96875 422.496094 25.398438 420.902344 C 24.867188 419.421875 24.410156 417.910156 23.960938 416.402344 C 23.050781 413.382812 22.335938 410.3125 21.820312 407.203125 C 21.28125 403.925781 21.097656 400.582031 21.296875 397.273438 C 21.476562 394.222656 22.128906 391.179688 23.398438 388.398438 C 24.015625 387.042969 24.863281 385.757812 25.863281 384.65625 C 26.308594 384.164062 26.792969 383.714844 27.332031 383.324219 C 27.917969 382.902344 28.578125 382.566406 29.257812 382.320312 C 30.558594 381.847656 31.925781 381.550781 33.3125 381.53125 C 34.683594 381.511719 36.054688 381.746094 37.355469 382.175781 C 41.765625 383.625 45.082031 387.085938 47.929688 390.609375 C 49.625 392.703125 51.226562 394.871094 52.878906 396.996094 C 54.574219 399.171875 56.335938 401.296875 58.25 403.28125 C 59.152344 404.195312 60.089844 405.078125 61.09375 405.886719 C 61.464844 406.167969 61.847656 406.429688 62.246094 406.675781 C 62.703125 406.9375 63.167969 407.175781 63.652344 407.386719 C 63.84375 407.457031 64.039062 407.523438 64.238281 407.585938 C 64.515625 407.65625 64.792969 407.714844 65.074219 407.757812 C 65.40625 407.796875 65.730469 407.820312 66.0625 407.828125 C 66.214844 407.820312 66.371094 407.8125 66.523438 407.796875 C 66.652344 407.773438 66.78125 407.753906 66.910156 407.726562 C 67.050781 407.679688 67.1875 407.632812 67.328125 407.585938 C 67.546875 407.484375 67.753906 407.382812 67.964844 407.269531 C 68.253906 407.097656 68.535156 406.917969 68.804688 406.726562 C 69.0625 406.527344 69.308594 406.320312 69.539062 406.101562 C 69.800781 405.839844 70.039062 405.566406 70.269531 405.28125 C 70.46875 405.011719 70.652344 404.738281 70.828125 404.453125 C 70.984375 404.167969 71.128906 403.878906 71.257812 403.582031 C 71.421875 403.152344 71.566406 402.722656 71.691406 402.28125 C 71.828125 401.730469 71.9375 401.175781 72.019531 400.609375 C 72.105469 399.882812 72.144531 399.15625 72.15625 398.429688 C 72.144531 397.535156 72.085938 396.648438 71.992188 395.765625 C 71.828125 394.523438 71.585938 393.296875 71.28125 392.082031 C 70.855469 390.480469 70.328125 388.914062 69.714844 387.371094 C 69.734375 387.421875 69.753906 387.46875 69.777344 387.519531 C 68.96875 385.527344 68.039062 383.601562 66.992188 381.726562 C 67.019531 381.773438 67.042969 381.816406 67.070312 381.863281 C 66.035156 380.046875 64.894531 378.304688 63.65625 376.625 C 61.917969 374.328125 60.019531 372.164062 58.089844 370.03125 C 56.410156 368.179688 54.722656 366.339844 53.054688 364.484375 C 51.382812 362.621094 49.726562 360.734375 48.121094 358.816406 C 46.503906 356.878906 44.945312 354.890625 43.4375 352.867188 C 43.441406 352.875 43.445312 352.878906 43.453125 352.890625 C 41.777344 350.640625 40.167969 348.347656 38.609375 346.019531 C 36.988281 343.59375 35.410156 341.121094 33.984375 338.578125 C 32.21875 335.421875 30.820312 332.070312 30.074219 328.523438 C 29.742188 326.960938 29.601562 325.34375 29.640625 323.75 C 29.675781 322.296875 29.90625 320.867188 30.292969 319.46875 C 30.855469 317.453125 31.921875 315.589844 33.261719 314 C 34.582031 312.433594 36.328125 311.210938 38.210938 310.421875 C 38.933594 310.121094 39.671875 309.875 40.425781 309.679688 C 40.34375 309.304688 40.257812 308.929688 40.179688 308.554688 C 39.738281 306.519531 39.40625 304.457031 39.238281 302.375 C 39.089844 300.574219 39.078125 298.769531 39.003906 296.964844 C 38.910156 294.667969 38.742188 292.378906 38.464844 290.097656 C 38.472656 290.148438 38.480469 290.203125 38.488281 290.253906 C 38.148438 287.636719 37.648438 285.054688 36.992188 282.5 C 36.164062 279.386719 35.136719 276.332031 33.949219 273.335938 C 33.96875 273.382812 33.984375 273.433594 34.007812 273.484375 C 32.371094 269.414062 30.402344 265.503906 28.269531 261.671875 C 28.277344 261.691406 28.289062 261.707031 28.296875 261.722656 C 26.589844 258.683594 24.792969 255.695312 23.128906 252.632812 C 22.332031 251.164062 21.570312 249.675781 20.867188 248.160156 C 20.191406 246.695312 19.585938 245.199219 19.023438 243.683594 C 17.964844 240.847656 17.117188 237.9375 16.40625 234.996094 C 15.804688 232.511719 15.316406 229.996094 15.003906 227.457031 C 14.640625 224.503906 14.695312 221.519531 15.285156 218.601562 C 15.902344 215.519531 17 212.5625 18.226562 209.679688 C 18.496094 209.058594 19.3125 208.832031 19.894531 209.117188 C 20.191406 209.265625 20.421875 209.53125 20.523438 209.84375 C 20.628906 210.164062 20.585938 210.480469 20.457031 210.785156 C 20.351562 211.039062 20.242188 211.289062 20.140625 211.542969 C 20.160156 211.492188 20.179688 211.441406 20.203125 211.390625 C 19.421875 213.277344 18.726562 215.191406 18.179688 217.15625 C 18.1875 217.121094 18.199219 217.085938 18.207031 217.046875 C 18.195312 217.085938 18.183594 217.125 18.175781 217.167969 C 18.171875 217.179688 18.167969 217.191406 18.164062 217.203125 C 18.167969 217.191406 18.171875 217.179688 18.171875 217.167969 C 17.863281 218.34375 17.613281 219.53125 17.445312 220.738281 C 17.332031 221.703125 17.265625 222.664062 17.253906 223.632812 C 17.257812 224.957031 17.363281 226.273438 17.523438 227.585938 C 17.519531 227.550781 17.511719 227.515625 17.511719 227.476562 C 17.871094 230.246094 18.449219 232.980469 19.136719 235.683594 C 19.125 235.636719 19.109375 235.582031 19.097656 235.53125 C 19.859375 238.476562 20.777344 241.378906 21.886719 244.214844 C 23.066406 247.160156 24.488281 249.980469 26.03125 252.753906 C 27.730469 255.785156 29.519531 258.769531 31.1875 261.824219 C 32.898438 264.949219 34.488281 268.140625 35.855469 271.433594 C 37.203125 274.6875 38.355469 278.019531 39.273438 281.414062 C 40.175781 284.738281 40.773438 288.125 41.132812 291.550781 C 41.382812 293.972656 41.480469 296.40625 41.558594 298.835938 C 41.617188 300.542969 41.691406 302.246094 41.894531 303.945312 C 42.132812 305.71875 42.46875 307.484375 42.875 309.234375 C 45.316406 308.964844 47.820312 309.1875 50.191406 309.824219 C 51.289062 310.125 52.347656 310.515625 53.375 311.007812 C 54.386719 311.488281 55.332031 312.105469 56.21875 312.789062 C 57.832031 314.039062 59.261719 315.582031 60.304688 317.34375 C 61.1875 318.832031 61.808594 320.453125 62.121094 322.152344 C 62.257812 322.902344 62.316406 323.664062 62.3125 324.425781 C 62.308594 325.074219 62.25 325.734375 62.082031 326.363281 C 61.753906 327.585938 61.097656 328.710938 59.992188 329.378906 C 58.835938 330.078125 57.484375 330.179688 56.175781 329.976562 C 54.640625 329.738281 53.222656 329.035156 51.902344 328.242188 C 51.164062 327.796875 50.460938 327.289062 49.78125 326.753906 C 49.085938 326.210938 48.417969 325.628906 47.796875 325.003906 C 44.988281 322.15625 43.070312 318.542969 41.820312 314.773438 C 41.527344 313.886719 41.261719 312.988281 41.019531 312.089844 C 41 312.09375 40.980469 312.101562 40.957031 312.105469 C 40.417969 312.253906 39.890625 312.429688 39.367188 312.632812 C 38.9375 312.816406 38.515625 313.015625 38.101562 313.234375 C 37.695312 313.464844 37.304688 313.710938 36.921875 313.980469 C 36.503906 314.304688 36.105469 314.644531 35.71875 315.011719 C 35.390625 315.347656 35.074219 315.699219 34.777344 316.066406 C 34.433594 316.527344 34.117188 316.996094 33.824219 317.484375 C 33.585938 317.914062 33.371094 318.347656 33.171875 318.792969 C 32.945312 319.351562 32.75 319.914062 32.585938 320.496094 C 32.433594 321.101562 32.320312 321.714844 32.230469 322.335938 C 32.160156 323.003906 32.121094 323.671875 32.117188 324.34375 C 32.128906 325.070312 32.183594 325.792969 32.265625 326.519531 C 32.390625 327.441406 32.566406 328.347656 32.789062 329.253906 C 33.113281 330.46875 33.511719 331.65625 33.96875 332.828125 C 33.953125 332.796875 33.941406 332.761719 33.925781 332.726562 C 34.527344 334.21875 35.222656 335.660156 35.992188 337.074219 C 37.386719 339.5625 38.914062 341.980469 40.492188 344.359375 C 42.058594 346.710938 43.679688 349.023438 45.359375 351.292969 C 45.4375 351.398438 45.515625 351.5 45.59375 351.605469 C 45.585938 351.597656 45.582031 351.589844 45.578125 351.589844 C 47.238281 353.804688 48.964844 355.972656 50.757812 358.085938 C 52.59375 360.25 54.484375 362.363281 56.390625 364.46875 C 58.25 366.523438 60.136719 368.558594 61.964844 370.640625 C 64.34375 373.335938 66.566406 376.179688 68.429688 379.261719 C 70.144531 382.097656 71.59375 385.105469 72.699219 388.230469 C 73.710938 391.101562 74.441406 394.109375 74.605469 397.160156 C 74.628906 397.582031 74.640625 398.007812 74.640625 398.433594 C 74.640625 400.679688 74.300781 402.953125 73.351562 404.988281 " fill-opacity="1" fill-rule="nonzero"/></g><g clip-path="url(#9cb5ce6c3a)"><g clip-path="url(#16fba55036)"><g clip-path="url(#671cf2f40b)"><path fill="#92cd50" d="M 111.089844 91.515625 C 113.078125 90.289062 115.265625 89.175781 117.605469 88.242188 C 118.089844 88.808594 118.753906 89.519531 119.617188 90.371094 C 121.730469 92.40625 124.996094 95.207031 129.554688 97.917969 C 134.097656 100.632812 139.984375 103.226562 146.917969 104.589844 C 147.351562 104.671875 147.789062 104.757812 148.226562 104.84375 C 148.664062 104.910156 149.105469 104.972656 149.546875 105.042969 C 150.429688 105.171875 151.328125 105.304688 152.234375 105.4375 C 154.0625 105.605469 155.925781 105.84375 157.847656 105.871094 C 161.671875 106.015625 165.691406 105.824219 169.714844 105.019531 C 173.742188 104.210938 177.546875 102.851562 181.003906 101.171875 C 184.457031 99.476562 187.625 97.542969 190.4375 95.46875 C 191.164062 94.976562 191.835938 94.4375 192.511719 93.917969 C 193.179688 93.394531 193.855469 92.898438 194.492188 92.371094 C 195.746094 91.308594 197.007812 90.316406 198.144531 89.273438 C 199.296875 88.242188 200.414062 87.277344 201.457031 86.234375 C 202.496094 85.207031 203.433594 84.175781 204.289062 83.164062 C 207.703125 79.101562 209.902344 75.433594 211.300781 72.855469 C 212.683594 70.261719 213.238281 68.71875 213.058594 68.628906 C 213.046875 68.421875 211.539062 68.328125 208.828125 68.089844 C 206.125 67.847656 202.210938 67.476562 197.496094 66.519531 C 195.148438 66.023438 192.601562 65.367188 189.980469 64.40625 C 188.628906 63.914062 187.230469 63.402344 185.789062 62.871094 C 184.320312 62.394531 182.824219 61.84375 181.25 61.402344 C 178.128906 60.433594 174.78125 59.617188 171.265625 58.96875 C 167.75 58.324219 164.050781 57.886719 160.230469 57.824219 C 156.414062 57.757812 152.664062 58.074219 149.109375 58.796875 C 145.554688 59.515625 142.210938 60.644531 139.199219 62.082031 C 133.144531 64.953125 128.574219 69.019531 125.316406 72.757812 C 122.019531 76.503906 119.964844 79.972656 118.648438 82.390625 C 118.328125 83 118.042969 83.542969 117.8125 84.019531 C 117.589844 84.5 117.414062 84.914062 117.273438 85.25 C 117.09375 85.703125 116.992188 86.011719 116.972656 86.183594 C 114.449219 87.207031 112.113281 88.441406 110.007812 89.800781 C 105.429688 92.757812 101.914062 96.25 99.402344 99.46875 C 99.378906 99.496094 99.363281 99.523438 99.34375 99.546875 C 100.203125 95.015625 100.332031 90.332031 99.546875 85.753906 C 99.179688 83.6875 98.640625 81.679688 97.933594 79.753906 C 97.195312 77.839844 96.285156 76.027344 95.253906 74.332031 C 95.144531 74.160156 95.027344 74 94.917969 73.832031 C 94.710938 73.25 94.46875 72.570312 94.199219 71.78125 C 93.222656 69.03125 92.0625 64.972656 90.347656 59.988281 C 88.660156 54.996094 85.757812 49.105469 80.703125 44.046875 C 78.191406 41.519531 75.121094 39.257812 71.554688 37.625 C 67.972656 36.03125 63.933594 35.101562 59.761719 35.160156 C 55.601562 35.21875 51.523438 36.269531 48.074219 38.234375 C 44.609375 40.222656 41.988281 43.046875 39.851562 45.839844 C 37.710938 48.648438 35.96875 51.460938 34.253906 53.988281 C 32.546875 56.515625 30.828125 58.773438 29.164062 60.761719 C 25.839844 64.75 22.785156 67.65625 20.644531 69.632812 C 18.488281 71.597656 17.257812 72.648438 17.355469 72.78125 C 17.398438 72.929688 18.53125 72.714844 20.542969 72.25 C 22.550781 71.808594 25.445312 71.050781 29.039062 70.707031 C 30.832031 70.558594 32.804688 70.5 34.859375 70.808594 C 36.910156 71.117188 39.058594 71.761719 41.261719 72.675781 C 43.472656 73.582031 45.738281 74.730469 48.15625 75.878906 C 50.574219 77.019531 53.171875 78.164062 56.050781 78.851562 C 56.765625 79.039062 57.503906 79.121094 58.230469 79.253906 L 59.332031 79.339844 C 59.695312 79.367188 60.0625 79.402344 60.425781 79.378906 C 61.894531 79.386719 63.34375 79.203125 64.695312 78.859375 C 67.40625 78.1875 69.789062 77.113281 72.035156 76.234375 C 74.28125 75.332031 76.390625 74.640625 78.464844 74.332031 C 80.53125 73.996094 82.496094 73.941406 84.285156 74.0625 C 87.867188 74.308594 90.6875 75.230469 92.574219 75.96875 C 93.152344 76.199219 93.636719 76.40625 94.050781 76.585938 C 94.738281 77.839844 95.355469 79.148438 95.875 80.519531 C 96.527344 82.3125 97.03125 84.191406 97.371094 86.125 C 98.171875 90.773438 97.976562 95.59375 96.960938 100.21875 C 96.488281 102.375 95.820312 104.492188 94.976562 106.527344 C 94.769531 106.949219 94.582031 107.355469 94.421875 107.726562 C 94.320312 107.949219 94.230469 108.160156 94.148438 108.367188 C 93.335938 110.023438 92.386719 111.652344 91.40625 113.238281 C 88.859375 117.289062 85.855469 121.238281 83.59375 125.683594 C 81.605469 129.488281 80.167969 133.535156 79.046875 137.636719 C 78.902344 137.050781 78.726562 136.378906 78.523438 135.609375 C 78.125 134.136719 77.628906 132.328125 76.878906 130.257812 C 76.136719 128.191406 75.101562 125.875 73.65625 123.480469 C 72.199219 121.097656 70.394531 118.640625 68.15625 116.226562 C 67.046875 115.015625 65.816406 113.832031 64.460938 112.703125 C 63.117188 111.558594 61.625 110.496094 59.996094 109.546875 C 56.773438 107.625 52.824219 106.273438 48.589844 106.253906 C 44.320312 106.242188 40.035156 107.882812 36.492188 110.449219 C 34.707031 111.730469 33.140625 113.21875 31.730469 114.78125 C 30.324219 116.351562 29.066406 118 27.988281 119.71875 C 26.902344 121.433594 25.949219 123.171875 25.160156 124.972656 C 24.394531 126.75 23.730469 128.488281 23.09375 130.164062 C 20.585938 136.867188 18.003906 142.703125 14.800781 146.945312 C 13.28125 149.125 11.597656 150.835938 10.082031 152.300781 C 9.3125 153.015625 8.523438 153.597656 7.835938 154.191406 C 7.496094 154.496094 7.132812 154.726562 6.785156 154.960938 C 6.445312 155.195312 6.117188 155.414062 5.808594 155.625 C 5.5 155.839844 5.210938 156.042969 4.9375 156.230469 C 4.664062 156.429688 4.378906 156.554688 4.132812 156.703125 C 3.628906 156.988281 3.207031 157.238281 2.867188 157.449219 C 2.1875 157.871094 1.84375 158.140625 1.882812 158.238281 C 1.75 158.355469 2.539062 159.523438 4.425781 161.160156 C 5.359375 161.996094 6.59375 162.890625 8.054688 163.882812 C 9.535156 164.847656 11.265625 165.875 13.230469 166.898438 C 15.203125 167.925781 17.410156 168.945312 19.835938 169.914062 C 22.273438 170.871094 24.917969 171.808594 27.867188 172.433594 C 32.808594 173.484375 38.308594 173.574219 43.914062 172.808594 C 43.367188 174.3125 42.5625 176.417969 41.257812 178.832031 C 39.90625 181.308594 38.003906 184.128906 35.632812 187.074219 C 33.273438 190.035156 30.433594 193.136719 27.5 196.503906 C 24.566406 199.863281 21.855469 203.257812 19.792969 206.632812 C 17.722656 209.996094 16.261719 213.304688 15.46875 216.214844 C 14.660156 219.121094 14.488281 221.585938 14.578125 223.257812 C 14.601562 224.097656 14.71875 224.742188 14.820312 225.171875 C 14.921875 225.605469 15.027344 225.824219 15.125 225.820312 C 15.617188 225.8125 15.4375 222.152344 17.441406 216.855469 C 18.425781 214.214844 19.976562 211.210938 22.066406 208.09375 C 24.152344 204.960938 26.800781 201.765625 29.714844 198.429688 C 32.617188 195.09375 35.449219 191.886719 37.773438 188.726562 C 40.113281 185.574219 41.929688 182.496094 43.125 179.730469 C 43.523438 178.800781 43.847656 177.914062 44.113281 177.085938 C 44.140625 177.535156 44.199219 178 44.308594 178.488281 C 44.660156 180.148438 45.589844 181.785156 46.769531 183.226562 C 47.359375 183.957031 48.011719 184.644531 48.691406 185.324219 C 49.355469 185.992188 50.078125 186.675781 50.863281 187.359375 C 53.988281 190.054688 57.910156 192.253906 61.964844 194.332031 C 66.019531 196.414062 69.828125 198.332031 72.894531 200.570312 C 74.429688 201.683594 75.785156 202.859375 76.945312 204.0625 C 78.101562 205.269531 79.035156 206.519531 79.8125 207.71875 C 81.359375 210.125 82.230469 212.328125 82.804688 213.867188 C 83.382812 215.40625 83.703125 216.292969 83.921875 216.25 C 83.984375 216.328125 84.28125 216.203125 84.796875 215.886719 C 85.054688 215.730469 85.363281 215.527344 85.726562 215.277344 C 86.09375 215.027344 86.503906 214.730469 86.9375 214.359375 C 88.726562 212.945312 91.125 210.617188 93.597656 207.332031 C 94.246094 206.53125 94.804688 205.609375 95.441406 204.679688 C 96.058594 203.742188 96.621094 202.714844 97.226562 201.664062 C 97.5 201.121094 97.773438 200.574219 98.058594 200.015625 C 98.351562 199.460938 98.609375 198.878906 98.859375 198.28125 C 99.109375 197.683594 99.382812 197.085938 99.625 196.46875 C 99.851562 195.84375 100.082031 195.207031 100.316406 194.566406 C 102.101562 189.40625 103.117188 183.355469 102.789062 177.015625 C 102.589844 173.851562 102.0625 170.789062 101.300781 167.90625 C 100.558594 165.011719 99.472656 162.335938 98.320312 159.863281 C 98.015625 159.253906 97.714844 158.648438 97.417969 158.050781 C 97.105469 157.460938 96.761719 156.902344 96.445312 156.339844 C 95.824219 155.203125 95.078125 154.183594 94.421875 153.167969 C 93.703125 152.195312 93.019531 151.246094 92.300781 150.382812 C 91.558594 149.539062 90.894531 148.6875 90.15625 147.96875 C 87.3125 145 84.660156 142.96875 82.714844 141.777344 C 82.246094 141.457031 81.800781 141.207031 81.410156 141.007812 C 81.140625 140.863281 80.910156 140.75 80.695312 140.644531 C 86.925781 134.738281 95.105469 131.066406 103.59375 129.691406 C 110.792969 128.511719 117.484375 129.261719 122.148438 130.351562 C 126.835938 131.425781 129.625 132.640625 129.769531 132.320312 C 129.890625 132.09375 127.3125 130.355469 122.554688 128.847656 C 117.839844 127.324219 110.820312 126.277344 103.238281 127.515625 C 99.65625 128.105469 96.125 129.074219 92.75 130.433594 C 92.898438 130.25 93.042969 130.074219 93.199219 129.875 C 94.988281 127.714844 97.648438 124.625 101.5 121.507812 C 102.429688 120.6875 103.527344 119.996094 104.617188 119.207031 C 105.160156 118.804688 105.773438 118.496094 106.367188 118.128906 C 106.96875 117.777344 107.5625 117.386719 108.222656 117.089844 C 108.867188 116.769531 109.523438 116.445312 110.191406 116.113281 C 110.882812 115.835938 111.582031 115.558594 112.292969 115.269531 C 112.996094 114.957031 113.753906 114.777344 114.5 114.535156 C 114.875 114.417969 115.253906 114.300781 115.632812 114.179688 C 116.023438 114.09375 116.414062 114.007812 116.808594 113.921875 C 119.945312 113.195312 123.34375 112.847656 126.855469 113.035156 C 127.730469 113.097656 128.613281 113.1875 129.507812 113.265625 C 130.394531 113.355469 131.28125 113.542969 132.179688 113.675781 L 132.851562 113.789062 L 133.515625 113.957031 C 133.957031 114.066406 134.402344 114.179688 134.847656 114.292969 C 135.292969 114.40625 135.742188 114.503906 136.1875 114.632812 C 136.628906 114.78125 137.074219 114.929688 137.515625 115.082031 C 139.300781 115.632812 141.007812 116.402344 142.707031 117.105469 C 144.375 117.902344 146.03125 118.660156 147.621094 119.519531 C 150.820312 121.175781 153.859375 122.929688 156.792969 124.558594 C 162.644531 127.84375 168.105469 130.640625 172.964844 132.378906 C 177.816406 134.152344 181.972656 134.835938 184.832031 135.097656 C 186.832031 135.183594 188.183594 135.148438 188.835938 135.058594 C 188.683594 135.140625 188.503906 135.246094 188.28125 135.394531 C 187.679688 135.777344 186.851562 136.402344 185.738281 137.136719 C 183.542969 138.648438 180.320312 140.761719 176.074219 142.855469 C 171.84375 144.960938 166.574219 147.027344 160.503906 148.449219 C 154.445312 149.902344 147.578125 150.667969 140.398438 150.378906 C 133.21875 150.089844 126.445312 148.761719 120.546875 146.785156 C 117.597656 145.792969 114.863281 144.648438 112.367188 143.453125 C 109.886719 142.214844 107.632812 140.949219 105.648438 139.664062 C 101.640625 137.019531 98.144531 135.070312 95.519531 134.191406 C 94.214844 133.738281 93.125 133.550781 92.375 133.5625 C 92.007812 133.542969 91.71875 133.609375 91.535156 133.65625 C 91.347656 133.707031 91.261719 133.757812 91.261719 133.804688 C 91.289062 134.03125 92.734375 134.027344 95.078125 135.25 C 97.441406 136.402344 100.617188 138.523438 104.476562 141.382812 C 106.453125 142.820312 108.726562 144.246094 111.253906 145.625 C 113.800781 146.964844 116.609375 148.238281 119.65625 149.347656 C 125.75 151.550781 132.804688 153.019531 140.28125 153.316406 C 147.757812 153.613281 154.902344 152.730469 161.15625 151.078125 C 167.421875 149.453125 172.808594 147.105469 177.046875 144.691406 C 181.300781 142.292969 184.425781 139.855469 186.445312 138.039062 C 187.472656 137.152344 188.191406 136.378906 188.671875 135.84375 C 189.148438 135.308594 189.363281 134.992188 189.296875 134.917969 C 189.300781 134.699219 187.742188 134.429688 184.988281 133.972656 C 182.25 133.371094 178.324219 132.410156 173.726562 130.453125 C 169.117188 128.527344 163.902344 125.617188 158.140625 122.21875 C 155.253906 120.527344 152.226562 118.710938 148.964844 116.980469 C 147.355469 116.089844 145.640625 115.285156 143.914062 114.449219 C 142.136719 113.699219 140.355469 112.898438 138.441406 112.304688 C 137.972656 112.144531 137.5 111.988281 137.027344 111.828125 C 136.550781 111.6875 136.0625 111.582031 135.582031 111.460938 C 135.101562 111.34375 134.621094 111.222656 134.140625 111.105469 L 133.425781 110.933594 L 132.703125 110.8125 C 131.738281 110.675781 130.789062 110.480469 129.835938 110.390625 C 128.878906 110.316406 127.929688 110.222656 126.984375 110.171875 C 123.207031 110.011719 119.539062 110.445312 116.171875 111.300781 C 115.75 111.40625 115.332031 111.511719 114.914062 111.617188 C 114.507812 111.753906 114.105469 111.886719 113.703125 112.023438 C 112.90625 112.308594 112.097656 112.523438 111.355469 112.878906 C 110.601562 113.210938 109.859375 113.53125 109.128906 113.847656 C 108.429688 114.222656 107.738281 114.597656 107.058594 114.960938 C 106.367188 115.304688 105.75 115.742188 105.125 116.140625 C 104.511719 116.558594 103.875 116.914062 103.320312 117.359375 C 102.203125 118.238281 101.085938 119.023438 100.15625 119.933594 C 96.292969 123.414062 93.808594 126.808594 92.269531 129.21875 C 91.820312 129.949219 91.460938 130.578125 91.160156 131.121094 C 90.828125 131.269531 90.488281 131.417969 90.160156 131.574219 C 87.085938 133.035156 84.167969 134.855469 81.515625 137.003906 C 82.554688 133.441406 83.84375 129.964844 85.550781 126.695312 C 87.710938 122.441406 90.636719 118.59375 93.273438 114.40625 C 94.578125 112.300781 95.820312 110.164062 96.824219 107.839844 C 97.492188 106.289062 98.042969 104.695312 98.507812 103.078125 C 99.136719 102.238281 99.824219 101.359375 100.601562 100.457031 C 103.179688 97.472656 106.664062 94.246094 111.089844 91.515625 Z M 117.789062 85.539062 C 118.007812 85.25 118.265625 84.886719 118.566406 84.457031 C 118.871094 84.03125 119.222656 83.539062 119.617188 82.984375 C 121.210938 80.792969 123.480469 77.582031 126.839844 74.160156 C 130.167969 70.738281 134.617188 67.078125 140.335938 64.53125 C 146.027344 61.945312 152.910156 60.601562 160.179688 60.753906 C 163.816406 60.8125 167.363281 61.210938 170.765625 61.792969 C 174.164062 62.386719 177.429688 63.121094 180.496094 63.996094 C 182.039062 64.394531 183.515625 64.894531 184.96875 65.316406 C 186.421875 65.796875 187.773438 66.257812 189.1875 66.703125 C 191.996094 67.617188 194.679688 68.179688 197.132812 68.5625 C 202.046875 69.28125 206.054688 69.335938 208.804688 69.226562 C 210.972656 69.140625 212.355469 68.941406 212.847656 68.765625 C 212.46875 69.148438 211.644531 70.371094 210.328125 72.253906 C 208.660156 74.613281 206.230469 78.039062 202.742188 81.785156 C 201.867188 82.714844 200.925781 83.660156 199.898438 84.59375 C 198.890625 85.519531 197.738281 86.445312 196.570312 87.417969 C 195.414062 88.40625 194.15625 89.335938 192.894531 90.34375 C 192.261719 90.839844 191.589844 91.304688 190.929688 91.800781 C 190.261719 92.289062 189.59375 92.796875 188.882812 93.257812 C 183.328125 97.101562 176.710938 100.636719 169.148438 102.136719 C 165.375 102.894531 161.59375 103.09375 157.941406 102.996094 C 156.113281 102.988281 154.316406 102.78125 152.558594 102.652344 C 151.675781 102.539062 150.808594 102.425781 149.949219 102.3125 C 149.519531 102.257812 149.09375 102.199219 148.667969 102.144531 C 148.25 102.070312 147.832031 102 147.417969 101.925781 C 140.792969 100.773438 135.089844 98.496094 130.574219 96.105469 C 126.042969 93.71875 122.667969 91.242188 120.367188 89.503906 C 119.5625 88.886719 118.898438 88.359375 118.351562 87.941406 C 118.359375 87.941406 118.367188 87.933594 118.378906 87.929688 C 120.960938 86.988281 123.875 86.480469 126.863281 86.035156 C 132.871094 85.226562 138.703125 84.867188 144 84.460938 C 149.304688 84.0625 154.089844 83.664062 158.097656 83.136719 C 162.105469 82.609375 165.335938 81.996094 167.523438 81.378906 C 168.074219 81.25 168.554688 81.089844 168.964844 80.941406 C 169.378906 80.796875 169.730469 80.667969 170.007812 80.554688 C 170.5625 80.335938 170.839844 80.183594 170.820312 80.113281 C 170.796875 80.039062 170.476562 80.046875 169.886719 80.128906 C 169.59375 80.167969 169.230469 80.226562 168.808594 80.300781 C 168.386719 80.382812 167.898438 80.472656 167.34375 80.539062 C 165.140625 80.890625 161.925781 81.265625 157.941406 81.585938 C 153.949219 81.910156 149.183594 82.148438 143.875 82.433594 C 138.566406 82.726562 132.714844 83.023438 126.558594 83.855469 C 123.488281 84.3125 120.46875 84.839844 117.613281 85.910156 C 117.550781 85.9375 117.488281 85.964844 117.425781 85.988281 C 117.535156 85.863281 117.652344 85.71875 117.792969 85.535156 Z M 92.945312 75.191406 C 91.105469 74.183594 88.230469 72.976562 84.441406 72.507812 C 82.550781 72.28125 80.449219 72.246094 78.214844 72.519531 C 75.972656 72.769531 73.621094 73.472656 71.320312 74.335938 C 69.003906 75.1875 66.667969 76.179688 64.207031 76.761719 C 62.976562 77.058594 61.722656 77.203125 60.445312 77.1875 C 60.125 77.210938 59.804688 77.175781 59.480469 77.148438 L 58.507812 77.070312 C 57.859375 76.945312 57.203125 76.878906 56.554688 76.703125 C 53.945312 76.085938 51.464844 75.023438 49.070312 73.925781 C 46.679688 72.820312 44.347656 71.6875 42.015625 70.792969 C 39.691406 69.886719 37.34375 69.25 35.085938 68.996094 C 32.828125 68.742188 30.726562 68.902344 28.855469 69.160156 C 25.105469 69.722656 22.25 70.726562 20.296875 71.421875 C 19.695312 71.648438 19.191406 71.84375 18.769531 72.019531 C 19.394531 71.609375 20.207031 71.039062 21.199219 70.285156 C 23.53125 68.488281 26.800781 65.710938 30.34375 61.777344 C 32.113281 59.816406 33.949219 57.558594 35.753906 55.027344 C 37.5625 52.503906 39.351562 49.75 41.453125 47.085938 C 43.550781 44.429688 46.023438 41.859375 49.144531 40.105469 C 52.261719 38.359375 55.96875 37.417969 59.792969 37.359375 C 63.625 37.300781 67.363281 38.152344 70.675781 39.585938 C 73.976562 41.066406 76.878906 43.144531 79.285156 45.484375 C 81.699219 47.820312 83.65625 50.398438 85.222656 52.96875 C 86.8125 55.535156 87.941406 58.101562 88.890625 60.523438 C 90.597656 64.925781 91.90625 68.636719 93.054688 71.292969 C 91.386719 69.25 89.515625 67.464844 87.519531 66.007812 C 84.605469 63.839844 81.523438 62.269531 78.550781 61.109375 C 77.074219 60.503906 75.59375 60.066406 74.183594 59.632812 C 72.753906 59.277344 71.394531 58.882812 70.042969 58.65625 C 64.683594 57.726562 60.265625 57.984375 57.292969 58.441406 C 54.3125 58.898438 52.753906 59.539062 52.789062 59.65625 C 52.832031 59.835938 54.445312 59.480469 57.386719 59.292969 C 60.316406 59.109375 64.625 59.097656 69.742188 60.183594 C 71.007812 60.445312 72.320312 60.875 73.695312 61.261719 C 75.046875 61.726562 76.460938 62.183594 77.867188 62.800781 C 80.691406 63.988281 83.585938 65.542969 86.292969 67.625 C 89.015625 69.675781 91.460938 72.339844 93.421875 75.460938 C 93.269531 75.375 93.117188 75.285156 92.949219 75.1875 Z M 28.40625 169.785156 C 25.675781 169.28125 23.085938 168.464844 20.699219 167.636719 C 18.3125 166.796875 16.113281 165.910156 14.140625 165.03125 C 12.167969 164.148438 10.421875 163.28125 8.90625 162.476562 C 7.410156 161.648438 6.121094 160.914062 5.121094 160.246094 C 3.46875 159.1875 2.484375 158.429688 2.082031 158.261719 C 2.277344 158.242188 2.613281 158.15625 3.117188 157.988281 C 3.503906 157.863281 3.976562 157.691406 4.53125 157.480469 C 4.808594 157.367188 5.121094 157.28125 5.421875 157.117188 C 5.726562 156.957031 6.050781 156.789062 6.390625 156.609375 C 6.734375 156.425781 7.09375 156.234375 7.476562 156.03125 C 7.855469 155.828125 8.261719 155.621094 8.640625 155.335938 C 9.410156 154.789062 10.289062 154.242188 11.152344 153.546875 C 12.855469 152.136719 14.738281 150.417969 16.453125 148.210938 C 20.046875 143.902344 22.957031 137.84375 25.613281 131.15625 C 26.289062 129.484375 26.972656 127.792969 27.722656 126.125 C 28.472656 124.488281 29.386719 122.863281 30.410156 121.277344 C 32.46875 118.125 35.058594 115.140625 38.21875 112.824219 C 41.386719 110.542969 45.019531 109.15625 48.613281 109.128906 C 52.222656 109.109375 55.699219 110.203125 58.667969 111.898438 C 60.160156 112.726562 61.558594 113.671875 62.839844 114.703125 C 64.125 115.722656 65.320312 116.800781 66.40625 117.914062 C 68.59375 120.117188 70.425781 122.417969 71.914062 124.597656 C 74.875 128.996094 76.308594 133.144531 77.441406 135.964844 C 77.855469 137.027344 78.222656 137.910156 78.527344 138.59375 C 74.996094 138.414062 71.496094 138.953125 68.152344 139.777344 C 64.21875 140.746094 60.441406 142.109375 56.703125 143.449219 C 53.582031 144.566406 50.644531 145.644531 47.9375 146.472656 C 45.238281 147.320312 42.773438 147.882812 40.679688 148.191406 C 36.484375 148.828125 33.84375 148.246094 33.769531 148.605469 C 33.734375 148.738281 34.355469 149.058594 35.570312 149.351562 C 36.78125 149.648438 38.601562 149.871094 40.832031 149.738281 C 43.054688 149.613281 45.6875 149.183594 48.496094 148.417969 C 51.316406 147.671875 54.328125 146.632812 57.441406 145.515625 C 61.183594 144.183594 64.894531 142.84375 68.679688 141.910156 C 72.160156 141.050781 75.726562 140.554688 79.214844 140.847656 C 79.183594 140.953125 79.152344 141.074219 79.117188 141.210938 C 79.039062 141.527344 78.964844 141.914062 78.871094 142.367188 C 78.753906 142.816406 78.621094 143.335938 78.472656 143.917969 C 78.339844 144.503906 78.09375 145.128906 77.890625 145.824219 C 77.679688 146.519531 77.347656 147.242188 77.058594 148.035156 C 76.355469 149.570312 75.53125 151.308594 74.335938 153.0625 C 71.996094 156.570312 68.484375 160.339844 63.710938 163.226562 C 63.101562 163.566406 62.507812 163.945312 61.871094 164.261719 C 61.226562 164.570312 60.609375 164.917969 59.925781 165.203125 C 58.582031 165.804688 57.183594 166.378906 55.734375 166.894531 C 52.84375 167.929688 49.765625 168.785156 46.566406 169.40625 C 40.171875 170.648438 33.878906 170.804688 28.398438 169.78125 Z M 82.035156 142.703125 C 83.726562 144.148438 86.078125 146.34375 88.609375 149.359375 C 89.265625 150.089844 89.851562 150.945312 90.511719 151.785156 C 91.152344 152.644531 91.757812 153.582031 92.402344 154.535156 C 92.980469 155.53125 93.652344 156.519531 94.199219 157.621094 C 94.480469 158.164062 94.789062 158.703125 95.0625 159.269531 C 95.328125 159.839844 95.597656 160.421875 95.867188 161.007812 C 96.886719 163.378906 97.863281 165.917969 98.519531 168.644531 C 99.199219 171.367188 99.667969 174.234375 99.859375 177.195312 C 100.164062 183.125 99.300781 188.8125 97.746094 193.734375 C 97.546875 194.347656 97.347656 194.953125 97.152344 195.554688 C 96.9375 196.144531 96.703125 196.722656 96.484375 197.296875 C 96.269531 197.871094 96.042969 198.429688 95.785156 198.964844 C 95.539062 199.507812 95.296875 200.042969 95.058594 200.570312 C 94.527344 201.589844 94.042969 202.59375 93.503906 203.523438 C 92.949219 204.4375 92.46875 205.355469 91.898438 206.15625 C 89.742188 209.453125 87.667969 211.910156 86.15625 213.539062 C 85.796875 213.96875 85.453125 214.324219 85.15625 214.632812 C 84.863281 214.949219 84.617188 215.21875 84.425781 215.449219 C 84.265625 215.640625 84.148438 215.792969 84.0625 215.921875 C 84.074219 215.816406 84.082031 215.699219 84.082031 215.546875 C 84.078125 215.097656 84.070312 214.429688 83.917969 213.585938 C 83.667969 211.90625 83.0625 209.453125 81.617188 206.683594 C 80.890625 205.308594 79.957031 203.855469 78.765625 202.449219 C 77.578125 201.046875 76.148438 199.683594 74.53125 198.421875 C 71.304688 195.875 67.355469 193.808594 63.324219 191.730469 C 59.285156 189.660156 55.550781 187.644531 52.597656 185.285156 C 51.871094 184.695312 51.167969 184.089844 50.484375 183.464844 C 49.8125 182.855469 49.179688 182.257812 48.628906 181.648438 C 47.519531 180.445312 46.710938 179.207031 46.328125 177.964844 C 45.949219 176.726562 45.867188 175.414062 45.917969 174.332031 C 45.953125 173.625 46.050781 173 46.191406 172.453125 C 46.507812 172.398438 46.820312 172.355469 47.136719 172.292969 C 50.492188 171.640625 53.710938 170.722656 56.734375 169.597656 C 58.25 169.042969 59.707031 168.417969 61.113281 167.753906 C 61.820312 167.441406 62.507812 167.042969 63.191406 166.695312 C 63.875 166.332031 64.507812 165.910156 65.15625 165.523438 C 66.398438 164.726562 67.546875 163.875 68.613281 162.984375 C 69.457031 164.488281 72.148438 167.941406 74.351562 172.554688 C 77.226562 178.410156 78.125 183.738281 78.769531 183.664062 C 79.054688 183.632812 79.207031 182.230469 78.917969 179.992188 C 78.777344 178.871094 78.5 177.558594 78.082031 176.121094 C 77.652344 174.695312 77.078125 173.148438 76.332031 171.589844 C 75.570312 170.039062 74.71875 168.632812 73.867188 167.40625 C 73 166.191406 72.140625 165.15625 71.347656 164.355469 C 70.472656 163.457031 69.722656 162.835938 69.183594 162.488281 C 72.199219 159.855469 74.496094 156.925781 76.109375 154.15625 C 77.269531 152.210938 78.015625 150.292969 78.605469 148.605469 C 78.839844 147.738281 79.105469 146.949219 79.246094 146.199219 C 79.378906 145.441406 79.546875 144.769531 79.597656 144.140625 C 79.660156 143.515625 79.707031 142.964844 79.742188 142.484375 C 79.753906 142.003906 79.734375 141.59375 79.714844 141.265625 C 79.707031 141.125 79.695312 141.003906 79.683594 140.890625 C 79.789062 140.902344 79.894531 140.90625 79.996094 140.917969 C 80.03125 140.953125 80.054688 140.980469 80.09375 141.011719 C 80.3125 141.214844 80.585938 141.457031 80.914062 141.734375 C 81.25 142.007812 81.628906 142.324219 82.035156 142.703125 Z M 82.035156 142.703125 " fill-opacity="1" fill-rule="nonzero"/></g></g></g></svg>